<svg xmlns="http://www.w3.org/2000/svg" viewBox="0 0 300 300" width="100%" height="100%">
  <defs>
    <linearGradient id="blueGrad" x1="0%" y1="0%" x2="100%" y2="100%">
      <stop offset="0%" stop-color="#00C8FF" />
      <stop offset="100%" stop-color="#005691" />
    </linearGradient>
    
    <linearGradient id="redGrad" x1="0%" y1="0%" x2="100%" y2="100%">
      <stop offset="0%" stop-color="#FF4B4B" />
      <stop offset="100%" stop-color="#CC0000" />
    </linearGradient>

    <filter id="shadow" x="-10%" y="-10%" width="130%" height="130%">
      <feDropShadow dx="2" dy="4" stdDeviation="4" flood-color="#000000" flood-opacity="0.25" />
    </filter>
  </defs>

  <g filter="url(#shadow)" fill="#FFFFFF">
    <circle cx="150" cy="150" r="95" stroke="#FFFFFF" stroke-width="20" />
    <rect x="135" y="30" width="30" height="40" rx="5" stroke="#FFFFFF" stroke-width="20" stroke-linejoin="round" />
    <path d="M 80 75 L 65 60 M 220 75 L 235 60" stroke="#FFFFFF" stroke-width="25" stroke-linecap="round" />
    <circle cx="95" cy="215" r="50" stroke="#FFFFFF" stroke-width="20" />
  </g>

  <rect x="135" y="35" width="30" height="30" rx="4" fill="#002d4d" />
  <rect x="125" y="25" width="50" height="15" rx="4" fill="url(#blueGrad)" />
  
  <path d="M 80 75 L 65 60" stroke="#002d4d" stroke-width="12" stroke-linecap="round" />
  <path d="M 220 75 L 235 60" stroke="#002d4d" stroke-width="12" stroke-linecap="round" />
  
  <circle cx="150" cy="150" r="90" fill="url(#blueGrad)" stroke="#002d4d" stroke-width="6" />
  
  <circle cx="150" cy="150" r="75" fill="#FFFFFF" stroke="#002d4d" stroke-width="4" />

  <g stroke="#005691" stroke-width="3" stroke-linecap="round">
    <line x1="150" y1="85" x2="150" y2="95" />
    <line x1="150" y1="205" x2="150" y2="215" />
    <line x1="85" y1="150" x2="95" y2="150" />
    <line x1="205" y1="150" x2="215" y2="150" />
    
    <line x1="104" y1="104" x2="111" y2="111" />
    <line x1="196" y1="104" x2="189" y2="111" />
    <line x1="196" y1="196" x2="189" y2="189" />
  </g>

  <rect x="110" y="110" width="80" height="70" rx="6" fill="#f0f0f0" stroke="#002d4d" stroke-width="4" />
  <path d="M 110 130 L 190 130" stroke="#002d4d" stroke-width="4" />
  <path d="M 110 116 Q 110 110 116 110 L 184 110 Q 190 110 190 116 L 190 130 L 110 130 Z" fill="url(#redGrad)" />
  
  <line x1="130" y1="100" x2="130" y2="115" stroke="#002d4d" stroke-width="5" stroke-linecap="round" />
  <line x1="170" y1="100" x2="170" y2="115" stroke="#002d4d" stroke-width="5" stroke-linecap="round" />
  
  <path d="M 130 150 L 145 165 L 180 120" fill="none" stroke="#00C8FF" stroke-width="8" stroke-linecap="round" stroke-linejoin="round" />
  <path d="M 130 150 L 145 165 L 180 120" fill="none" stroke="#005691" stroke-width="4" stroke-linecap="round" stroke-linejoin="round" />

  <circle cx="95" cy="215" r="48" fill="url(#blueGrad)" stroke="#002d4d" stroke-width="5" />
  <text x="95" y="210" font-family="Arial, sans-serif" font-weight="bold" font-size="28" fill="#FFFFFF" text-anchor="middle">100%</text>
  <text x="95" y="235" font-family="Arial, sans-serif" font-weight="bold" font-size="16" fill="#FFFFFF" text-anchor="middle">CORAL</text>

</svg>
